<svg width="151" height="34" viewBox="0 0 151 34" fill="none" xmlns="http://www.w3.org/2000/svg">
<g clip-path="url(#clip0_2301_76)">
<path d="M7.95408 14.7103C7.95408 12.2986 7.95408 9.88575 7.95408 7.47179C7.95408 5.35617 9.13476 4.25659 11.4086 4.25488H26.9754C29.3024 4.25488 30.4797 5.34082 30.4797 7.49396C30.4797 12.3196 30.4797 17.1453 30.4797 21.9709C30.4797 24.1581 29.3007 25.2441 26.9325 25.2441C26.1328 25.2441 25.3313 25.2287 24.5299 25.2441C24.106 25.2577 23.9653 25.1094 23.9756 24.7326C23.9979 24.0132 23.9996 23.2938 23.9756 22.5744C23.9619 22.1704 24.0992 21.988 24.5591 22.0169C24.9692 22.0442 25.3811 22.0272 25.793 22.0169C26.6751 22.005 26.9942 21.7203 26.9942 20.9088C27.0028 18.8972 26.9942 16.8873 26.9942 14.8756C26.9942 12.8026 26.9942 10.7285 26.9942 8.6532C26.9942 7.72921 26.7214 7.47691 25.7432 7.4752C21.3774 7.4752 17.0117 7.4752 12.6459 7.4752C11.7021 7.4752 11.4275 7.72921 11.4275 8.6174C11.4275 12.702 11.4275 16.7867 11.4275 20.8713C11.4275 21.7442 11.7192 22.0101 12.6545 22.0152C14.0497 22.0152 15.4449 22.034 16.8366 22.0152C17.324 22.005 17.4767 22.1635 17.4561 22.6017C17.4235 23.2989 17.4767 24.0013 17.4253 24.6968C17.3939 24.8022 17.336 24.8979 17.257 24.9749C17.178 25.0519 17.0806 25.1075 16.9739 25.1367C14.779 25.1588 12.5841 25.1861 10.3927 25.1162C8.9786 25.0719 7.95923 23.7984 7.95065 22.2062C7.93864 19.7087 7.95065 17.2112 7.95065 14.7052" fill="#403F41"/>
<path d="M6.51439 11.6893C6.51439 12.6713 6.5058 13.5373 6.51439 14.4033C6.51439 14.7664 6.32905 14.8892 5.96695 14.8841C5.53449 14.8755 5.0986 14.8841 4.66614 14.8841C3.72915 14.8926 3.48718 15.1074 3.48546 15.9785C3.47745 18.6448 3.47745 21.3116 3.48546 23.979C3.48546 25.3974 3.48546 26.8181 3.48546 28.241C3.48546 29.153 3.72915 29.3849 4.68674 29.3866C9.07539 29.3866 13.464 29.3866 17.8527 29.3866C18.7845 29.3866 19.054 29.1479 19.054 28.3024C19.054 24.1973 19.054 20.091 19.054 15.9837C19.054 15.121 18.7639 14.867 17.8046 14.8619C16.4318 14.8619 15.0589 14.8449 13.686 14.8619C13.1935 14.8619 12.9772 14.7511 12.9995 14.2584C13.0407 13.5765 13.0253 12.9031 12.9995 12.2263C12.9875 11.8513 13.1283 11.6876 13.547 11.6893C15.5806 11.7013 17.6176 11.6569 19.6494 11.7166C21.4496 11.7712 22.4741 12.8094 22.4896 14.6642C22.5331 19.6648 22.5331 24.6598 22.4896 29.6491C22.4724 31.5841 21.2197 32.6069 19.1089 32.6069C13.8462 32.6069 8.58916 32.6069 3.33788 32.6069C1.19275 32.6069 -0.0136719 31.4835 -0.0136719 29.4923C-0.0136719 24.5825 -0.0136719 19.6722 -0.0136719 14.7613C-0.0136719 12.7599 1.10523 11.7166 3.27438 11.6927C4.31949 11.6825 5.36631 11.6927 6.49723 11.6927" fill="#403F41"/>
<path d="M41.0732 1.0625C47.0693 1.21593 52.9882 1.12387 58.8624 1.59098C64.5804 2.04445 68.4932 6.08818 69.4679 11.6901C70.1543 15.6809 70.247 19.6599 69.2311 23.6047C67.9097 28.7446 64.1669 32.1883 58.8624 32.6946C54.9514 33.068 50.9958 32.9725 47.059 33.0526C45.0941 33.0918 43.1291 33.0526 41.0732 33.0526V1.0625ZM49.1269 7.37017V26.8592C51.4008 26.8592 53.6008 26.9904 55.7768 26.8268C58.8898 26.5915 60.9921 24.7623 61.3816 21.6715C61.7128 19.0479 61.8381 16.3322 61.5532 13.7136C61.0744 9.42954 59.173 7.66168 55.2774 7.40597C53.2747 7.27129 51.2532 7.3821 49.1355 7.3821" fill="#68B82E"/>
<path d="M117.014 2.23158V8.51198C114.197 8.17955 111.418 7.73971 108.621 7.56242C107.057 7.48295 105.49 7.62589 103.967 7.9869C100.847 8.70462 98.8837 10.7043 98.2813 13.865C97.7511 16.6489 97.6756 19.4379 98.6417 22.1655C98.9682 23.1456 99.5348 24.0297 100.291 24.7382C101.046 25.4467 101.968 25.9575 102.971 26.2246C106.006 27.1009 109.074 26.9338 112.156 26.0268V20.0124H105.374V15.0396H118.88C118.904 15.447 118.947 15.834 118.947 16.2227C118.947 20.6755 118.924 25.1284 118.971 29.5813C118.981 30.4524 118.761 30.9843 117.931 31.3287C111.327 34.0683 104.61 34.5064 97.9192 31.8725C94.2519 30.4269 91.8116 27.5918 90.6533 23.7765C89.322 19.4885 89.3688 14.8949 90.7871 10.6344C92.1875 6.35032 95.1889 3.50505 99.4328 1.91279C103.938 0.221651 112.415 0.342689 117.014 2.23158" fill="#F39800"/>
<path d="M137.57 8.91797C139.67 9.30495 141.822 9.51805 143.856 10.1198C147.403 11.1666 149.655 13.6538 150.42 17.2253C151.45 21.9987 151.46 26.7209 147.57 30.393C146.329 31.5625 144.58 32.4047 142.914 32.8854C139.514 33.864 135.989 33.8111 132.542 33.003C128.507 32.0569 125.751 29.614 124.754 25.5549C123.896 22.0703 123.925 18.5448 125.458 15.2256C127.275 11.291 130.745 9.75331 134.84 9.29643C135.728 9.19585 136.629 9.20096 137.524 9.15834L137.57 8.91797V8.91797ZM142.795 21.2333C142.742 20.6946 142.723 19.9786 142.598 19.2813C142.1 16.5417 140.676 15.4012 137.75 15.3467C134.682 15.2921 133.189 16.3337 132.658 19.1194C132.421 20.3377 132.366 21.5845 132.497 22.8187C132.682 24.399 133.012 26.0032 134.766 26.7789C138.979 28.6542 142.468 26.6084 142.742 22.0686C142.754 21.847 142.77 21.6254 142.795 21.2333" fill="#FBC400"/>
<path d="M76.4712 15.4008H72.9497C73.1694 13.4404 73.3787 11.5787 73.5932 9.65234H84.3515V32.9652H76.4574L76.4712 15.4008Z" fill="#3273AE"/>
<path d="M84.3879 0H75.8159V5.80135H84.3879V0Z" fill="#3273AE"/>
</g>
<defs>
<clipPath id="clip0_2301_76">
<rect width="151" height="33.6318" fill="white"/>
</clipPath>
</defs>
</svg>
